<?xml version="1.0" encoding="utf-8"?>
<!-- Generator: Adobe Illustrator 16.0.0, SVG Export Plug-In . SVG Version: 6.00 Build 0)  -->
<!DOCTYPE svg PUBLIC "-//W3C//DTD SVG 1.1//EN" "http://www.w3.org/Graphics/SVG/1.1/DTD/svg11.dtd">
<svg version="1.1" id="Layer_1" xmlns="http://www.w3.org/2000/svg" xmlns:xlink="http://www.w3.org/1999/xlink" x="0px" y="0px"
	 width="38px" height="38px" viewBox="5.995 1.002 38 38" enable-background="new 5.995 1.002 38 38" xml:space="preserve">
<g opacity="0.4">
	<path fill="#232425" d="M32.289,13.178c0,4.025-2.123,9.339-7.293,9.339c-5.377,0-7.296-5.313-7.296-9.339
		c0-4.024,1.781-8.177,7.296-8.177C30.715,5.001,32.289,9.153,32.289,13.178z"/>
	<path fill="#232425" d="M30.547,24.981c-0.793-0.307-2.137-0.556-2.985-0.556h-5.135c-0.847,0-2.191,0.249-2.982,0.556
		l-8.011,3.102c-0.79,0.303-1.439,1.249-1.439,2.098v3.281c0,0.849,0.695,1.541,1.544,1.541h26.915c0.848,0,1.543-0.692,1.543-1.541
		v-3.281c0-0.849-0.648-1.795-1.438-2.098L30.547,24.981z"/>
</g>
</svg>
