<?xml version="1.0" encoding="utf-8"?>
<!-- Generator: Adobe Illustrator 16.0.0, SVG Export Plug-In . SVG Version: 6.00 Build 0)  -->
<!DOCTYPE svg PUBLIC "-//W3C//DTD SVG 1.1//EN" "http://www.w3.org/Graphics/SVG/1.1/DTD/svg11.dtd">
<svg version="1.1" id="Layer_1" xmlns="http://www.w3.org/2000/svg" xmlns:xlink="http://www.w3.org/1999/xlink" x="0px" y="0px"
	 width="38px" height="38px" viewBox="5.98 0.141 38 38" enable-background="new 5.98 0.141 38 38" xml:space="preserve">
<g opacity="0.4">
	<path fill="#232425" d="M38.83,16.625H21.985c-1.025-2.052-3.144-3.475-5.625-3.475c-3.476,0-6.288,2.813-6.288,6.288
		c0,3.475,2.812,6.288,6.288,6.288c2.481,0,4.633-1.456,5.658-3.574h2.35l1.093-0.992h1.819l0.827-1.258h1.854l0.53,1.125h2.249
		l0.894-1.125h2.185l0.894,0.695l0.827-0.695h1.456l0.894-0.794v-1.291C39.525,17.419,39.161,17.022,38.83,16.625z M13.944,20.861
		c-0.827,0-1.457-0.662-1.457-1.456c0-0.794,0.663-1.456,1.457-1.456s1.456,0.662,1.456,1.456
		C15.4,20.199,14.738,20.861,13.944,20.861z"/>
</g>
</svg>
